<svg width="64" height="64" viewBox="0 0 64 64" fill="none" xmlns="http://www.w3.org/2000/svg">
  <circle cx="31.9618" cy="31.9613" r="29.1508" fill="#428EFF" stroke="#071B3A" stroke-width="4.75676" />
  <circle cx="17.7691" cy="25.0972" r="10.8375" fill="white" />
  <path
    d="M11.2645 25.1748C11.2538 26.7432 11.8144 28.2619 12.8415 29.4472C13.8687 30.6325 15.2922 31.4033 16.8462 31.6158C18.4002 31.8282 19.9784 31.4677 21.286 30.6016C22.5936 29.7355 23.5412 28.423 23.9519 26.9093C24.3625 25.3956 24.2081 23.7841 23.5174 22.3759C22.8268 20.9677 21.6472 19.8591 20.1989 19.2571C18.7505 18.6551 17.1326 18.6008 15.6473 19.1045C14.1619 19.6082 12.9107 20.6354 12.1273 21.9942L17.7207 25.2189L11.2645 25.1748Z"
    fill="#071B3A" />
  <circle cx="46.0054" cy="25.0972" r="10.8375" fill="white" />
  <path
    d="M39.5008 25.1748C39.4901 26.7432 40.0507 28.2619 41.0778 29.4472C42.105 30.6325 43.5285 31.4033 45.0825 31.6158C46.6365 31.8282 48.2147 31.4677 49.5223 30.6016C50.8299 29.7355 51.7775 28.423 52.1882 26.9093C52.5988 25.3956 52.4444 23.7841 51.7538 22.3759C51.0631 20.9677 49.8835 19.8591 48.4352 19.2571C46.9869 18.6551 45.369 18.6008 43.8836 19.1045C42.3982 19.6082 41.147 20.6354 40.3636 21.9942L45.957 25.2189L39.5008 25.1748Z"
    fill="#071B3A" />
  <path
    d="M46.3526 39.1631C46.3526 42.1326 44.8286 44.9805 42.1158 47.0802C39.403 49.18 35.7237 50.3596 31.8872 50.3596C28.0508 50.3596 24.3715 49.18 21.6587 47.0802C18.9459 44.9805 17.4219 42.1326 17.4219 39.1631L46.3526 39.1631Z"
    fill="white" />
</svg>